<?xml version="1.0" standalone="no"?>
<svg xmlns="http://www.w3.org/2000/svg" width="256" height="256"><defs><clipPath id="clip-path-dot-color"><rect x="17" y="71" width="6" height="6" transform="rotate(0,20,74)"/><rect x="17" y="83" width="6" height="6" transform="rotate(0,20,86)"/><rect x="17" y="89" width="6" height="6" transform="rotate(0,20,92)"/><rect x="17" y="113" width="6" height="6" transform="rotate(0,20,116)"/><rect x="17" y="119" width="6" height="6" transform="rotate(0,20,122)"/><rect x="17" y="131" width="6" height="6" transform="rotate(0,20,134)"/><rect x="17" y="137" width="6" height="6" transform="rotate(0,20,140)"/><rect x="17" y="143" width="6" height="6" transform="rotate(0,20,146)"/><rect x="17" y="167" width="6" height="6" transform="rotate(0,20,170)"/><rect x="17" y="185" width="6" height="6" transform="rotate(0,20,188)"/><rect x="23" y="65" width="6" height="6" transform="rotate(0,26,68)"/><rect x="23" y="77" width="6" height="6" transform="rotate(0,26,80)"/><rect x="23" y="83" width="6" height="6" transform="rotate(0,26,86)"/><rect x="23" y="89" width="6" height="6" transform="rotate(0,26,92)"/><rect x="23" y="101" width="6" height="6" transform="rotate(0,26,104)"/><rect x="23" y="107" width="6" height="6" transform="rotate(0,26,110)"/><rect x="23" y="137" width="6" height="6" transform="rotate(0,26,140)"/><rect x="23" y="149" width="6" height="6" transform="rotate(0,26,152)"/><rect x="23" y="167" width="6" height="6" transform="rotate(0,26,170)"/><rect x="23" y="185" width="6" height="6" transform="rotate(0,26,188)"/><rect x="29" y="65" width="6" height="6" transform="rotate(0,32,68)"/><rect x="29" y="77" width="6" height="6" transform="rotate(0,32,80)"/><rect x="29" y="113" width="6" height="6" transform="rotate(0,32,116)"/><rect x="29" y="119" width="6" height="6" transform="rotate(0,32,122)"/><rect x="29" y="149" width="6" height="6" transform="rotate(0,32,152)"/><rect x="29" y="155" width="6" height="6" transform="rotate(0,32,158)"/><rect x="29" y="161" width="6" height="6" transform="rotate(0,32,164)"/><rect x="29" y="167" width="6" height="6" transform="rotate(0,32,170)"/><rect x="29" y="179" width="6" height="6" transform="rotate(0,32,182)"/><rect x="35" y="83" width="6" height="6" transform="rotate(0,38,86)"/><rect x="35" y="89" width="6" height="6" transform="rotate(0,38,92)"/><rect x="35" y="95" width="6" height="6" transform="rotate(0,38,98)"/><rect x="35" y="101" width="6" height="6" transform="rotate(0,38,104)"/><rect x="35" y="113" width="6" height="6" transform="rotate(0,38,116)"/><rect x="35" y="125" width="6" height="6" transform="rotate(0,38,128)"/><rect x="35" y="131" width="6" height="6" transform="rotate(0,38,134)"/><rect x="35" y="137" width="6" height="6" transform="rotate(0,38,140)"/><rect x="35" y="149" width="6" height="6" transform="rotate(0,38,152)"/><rect x="35" y="155" width="6" height="6" transform="rotate(0,38,158)"/><rect x="35" y="161" width="6" height="6" transform="rotate(0,38,164)"/><rect x="35" y="167" width="6" height="6" transform="rotate(0,38,170)"/><rect x="41" y="71" width="6" height="6" transform="rotate(0,44,74)"/><rect x="41" y="95" width="6" height="6" transform="rotate(0,44,98)"/><rect x="41" y="101" width="6" height="6" transform="rotate(0,44,104)"/><rect x="41" y="137" width="6" height="6" transform="rotate(0,44,140)"/><rect x="41" y="161" width="6" height="6" transform="rotate(0,44,164)"/><rect x="41" y="173" width="6" height="6" transform="rotate(0,44,176)"/><rect x="41" y="179" width="6" height="6" transform="rotate(0,44,182)"/><rect x="47" y="71" width="6" height="6" transform="rotate(0,50,74)"/><rect x="47" y="83" width="6" height="6" transform="rotate(0,50,86)"/><rect x="47" y="95" width="6" height="6" transform="rotate(0,50,98)"/><rect x="47" y="101" width="6" height="6" transform="rotate(0,50,104)"/><rect x="47" y="107" width="6" height="6" transform="rotate(0,50,110)"/><rect x="47" y="125" width="6" height="6" transform="rotate(0,50,128)"/><rect x="47" y="131" width="6" height="6" transform="rotate(0,50,134)"/><rect x="47" y="161" width="6" height="6" transform="rotate(0,50,164)"/><rect x="47" y="173" width="6" height="6" transform="rotate(0,50,176)"/><rect x="53" y="65" width="6" height="6" transform="rotate(0,56,68)"/><rect x="53" y="77" width="6" height="6" transform="rotate(0,56,80)"/><rect x="53" y="89" width="6" height="6" transform="rotate(0,56,92)"/><rect x="53" y="101" width="6" height="6" transform="rotate(0,56,104)"/><rect x="53" y="113" width="6" height="6" transform="rotate(0,56,116)"/><rect x="53" y="125" width="6" height="6" transform="rotate(0,56,128)"/><rect x="53" y="137" width="6" height="6" transform="rotate(0,56,140)"/><rect x="53" y="149" width="6" height="6" transform="rotate(0,56,152)"/><rect x="53" y="161" width="6" height="6" transform="rotate(0,56,164)"/><rect x="53" y="173" width="6" height="6" transform="rotate(0,56,176)"/><rect x="53" y="185" width="6" height="6" transform="rotate(0,56,188)"/><rect x="59" y="89" width="6" height="6" transform="rotate(0,62,92)"/><rect x="59" y="95" width="6" height="6" transform="rotate(0,62,98)"/><rect x="59" y="101" width="6" height="6" transform="rotate(0,62,104)"/><rect x="59" y="113" width="6" height="6" transform="rotate(0,62,116)"/><rect x="59" y="137" width="6" height="6" transform="rotate(0,62,140)"/><rect x="59" y="155" width="6" height="6" transform="rotate(0,62,158)"/><rect x="59" y="161" width="6" height="6" transform="rotate(0,62,164)"/><rect x="59" y="179" width="6" height="6" transform="rotate(0,62,182)"/><rect x="59" y="185" width="6" height="6" transform="rotate(0,62,188)"/><rect x="65" y="23" width="6" height="6" transform="rotate(0,68,26)"/><rect x="65" y="29" width="6" height="6" transform="rotate(0,68,32)"/><rect x="65" y="35" width="6" height="6" transform="rotate(0,68,38)"/><rect x="65" y="47" width="6" height="6" transform="rotate(0,68,50)"/><rect x="65" y="53" width="6" height="6" transform="rotate(0,68,56)"/><rect x="65" y="71" width="6" height="6" transform="rotate(0,68,74)"/><rect x="65" y="77" width="6" height="6" transform="rotate(0,68,80)"/><rect x="65" y="95" width="6" height="6" transform="rotate(0,68,98)"/><rect x="65" y="101" width="6" height="6" transform="rotate(0,68,104)"/><rect x="65" y="119" width="6" height="6" transform="rotate(0,68,122)"/><rect x="65" y="143" width="6" height="6" transform="rotate(0,68,146)"/><rect x="65" y="161" width="6" height="6" transform="rotate(0,68,164)"/><rect x="65" y="173" width="6" height="6" transform="rotate(0,68,176)"/><rect x="65" y="179" width="6" height="6" transform="rotate(0,68,182)"/><rect x="65" y="185" width="6" height="6" transform="rotate(0,68,188)"/><rect x="65" y="221" width="6" height="6" transform="rotate(0,68,224)"/><rect x="65" y="227" width="6" height="6" transform="rotate(0,68,230)"/><rect x="71" y="35" width="6" height="6" transform="rotate(0,74,38)"/><rect x="71" y="41" width="6" height="6" transform="rotate(0,74,44)"/><rect x="71" y="59" width="6" height="6" transform="rotate(0,74,62)"/><rect x="71" y="71" width="6" height="6" transform="rotate(0,74,74)"/><rect x="71" y="83" width="6" height="6" transform="rotate(0,74,86)"/><rect x="71" y="107" width="6" height="6" transform="rotate(0,74,110)"/><rect x="71" y="125" width="6" height="6" transform="rotate(0,74,128)"/><rect x="71" y="131" width="6" height="6" transform="rotate(0,74,134)"/><rect x="71" y="137" width="6" height="6" transform="rotate(0,74,140)"/><rect x="71" y="143" width="6" height="6" transform="rotate(0,74,146)"/><rect x="71" y="155" width="6" height="6" transform="rotate(0,74,158)"/><rect x="71" y="167" width="6" height="6" transform="rotate(0,74,170)"/><rect x="71" y="185" width="6" height="6" transform="rotate(0,74,188)"/><rect x="71" y="191" width="6" height="6" transform="rotate(0,74,194)"/><rect x="71" y="203" width="6" height="6" transform="rotate(0,74,206)"/><rect x="77" y="23" width="6" height="6" transform="rotate(0,80,26)"/><rect x="77" y="47" width="6" height="6" transform="rotate(0,80,50)"/><rect x="77" y="53" width="6" height="6" transform="rotate(0,80,56)"/><rect x="77" y="59" width="6" height="6" transform="rotate(0,80,62)"/><rect x="77" y="83" width="6" height="6" transform="rotate(0,80,86)"/><rect x="77" y="101" width="6" height="6" transform="rotate(0,80,104)"/><rect x="77" y="113" width="6" height="6" transform="rotate(0,80,116)"/><rect x="77" y="125" width="6" height="6" transform="rotate(0,80,128)"/><rect x="77" y="149" width="6" height="6" transform="rotate(0,80,152)"/><rect x="77" y="155" width="6" height="6" transform="rotate(0,80,158)"/><rect x="77" y="161" width="6" height="6" transform="rotate(0,80,164)"/><rect x="77" y="167" width="6" height="6" transform="rotate(0,80,170)"/><rect x="77" y="191" width="6" height="6" transform="rotate(0,80,194)"/><rect x="83" y="17" width="6" height="6" transform="rotate(0,86,20)"/><rect x="83" y="41" width="6" height="6" transform="rotate(0,86,44)"/><rect x="83" y="107" width="6" height="6" transform="rotate(0,86,110)"/><rect x="83" y="113" width="6" height="6" transform="rotate(0,86,116)"/><rect x="83" y="131" width="6" height="6" transform="rotate(0,86,134)"/><rect x="83" y="167" width="6" height="6" transform="rotate(0,86,170)"/><rect x="83" y="173" width="6" height="6" transform="rotate(0,86,176)"/><rect x="83" y="203" width="6" height="6" transform="rotate(0,86,206)"/><rect x="83" y="215" width="6" height="6" transform="rotate(0,86,218)"/><rect x="83" y="221" width="6" height="6" transform="rotate(0,86,224)"/><rect x="83" y="227" width="6" height="6" transform="rotate(0,86,230)"/><rect x="83" y="233" width="6" height="6" transform="rotate(0,86,236)"/><rect x="89" y="17" width="6" height="6" transform="rotate(0,92,20)"/><rect x="89" y="23" width="6" height="6" transform="rotate(0,92,26)"/><rect x="89" y="29" width="6" height="6" transform="rotate(0,92,32)"/><rect x="89" y="53" width="6" height="6" transform="rotate(0,92,56)"/><rect x="89" y="65" width="6" height="6" transform="rotate(0,92,68)"/><rect x="89" y="77" width="6" height="6" transform="rotate(0,92,80)"/><rect x="89" y="89" width="6" height="6" transform="rotate(0,92,92)"/><rect x="89" y="95" width="6" height="6" transform="rotate(0,92,98)"/><rect x="89" y="101" width="6" height="6" transform="rotate(0,92,104)"/><rect x="89" y="125" width="6" height="6" transform="rotate(0,92,128)"/><rect x="89" y="131" width="6" height="6" transform="rotate(0,92,134)"/><rect x="89" y="137" width="6" height="6" transform="rotate(0,92,140)"/><rect x="89" y="149" width="6" height="6" transform="rotate(0,92,152)"/><rect x="89" y="161" width="6" height="6" transform="rotate(0,92,164)"/><rect x="89" y="167" width="6" height="6" transform="rotate(0,92,170)"/><rect x="89" y="173" width="6" height="6" transform="rotate(0,92,176)"/><rect x="89" y="179" width="6" height="6" transform="rotate(0,92,182)"/><rect x="89" y="191" width="6" height="6" transform="rotate(0,92,194)"/><rect x="89" y="197" width="6" height="6" transform="rotate(0,92,200)"/><rect x="89" y="203" width="6" height="6" transform="rotate(0,92,206)"/><rect x="89" y="209" width="6" height="6" transform="rotate(0,92,212)"/><rect x="89" y="215" width="6" height="6" transform="rotate(0,92,218)"/><rect x="89" y="221" width="6" height="6" transform="rotate(0,92,224)"/><rect x="89" y="233" width="6" height="6" transform="rotate(0,92,236)"/><rect x="95" y="17" width="6" height="6" transform="rotate(0,98,20)"/><rect x="95" y="23" width="6" height="6" transform="rotate(0,98,26)"/><rect x="95" y="41" width="6" height="6" transform="rotate(0,98,44)"/><rect x="95" y="59" width="6" height="6" transform="rotate(0,98,62)"/><rect x="95" y="65" width="6" height="6" transform="rotate(0,98,68)"/><rect x="95" y="77" width="6" height="6" transform="rotate(0,98,80)"/><rect x="95" y="83" width="6" height="6" transform="rotate(0,98,86)"/><rect x="95" y="161" width="6" height="6" transform="rotate(0,98,164)"/><rect x="95" y="179" width="6" height="6" transform="rotate(0,98,182)"/><rect x="95" y="185" width="6" height="6" transform="rotate(0,98,188)"/><rect x="95" y="197" width="6" height="6" transform="rotate(0,98,200)"/><rect x="95" y="203" width="6" height="6" transform="rotate(0,98,206)"/><rect x="95" y="209" width="6" height="6" transform="rotate(0,98,212)"/><rect x="95" y="221" width="6" height="6" transform="rotate(0,98,224)"/><rect x="95" y="233" width="6" height="6" transform="rotate(0,98,236)"/><rect x="101" y="23" width="6" height="6" transform="rotate(0,104,26)"/><rect x="101" y="35" width="6" height="6" transform="rotate(0,104,38)"/><rect x="101" y="41" width="6" height="6" transform="rotate(0,104,44)"/><rect x="101" y="47" width="6" height="6" transform="rotate(0,104,50)"/><rect x="101" y="53" width="6" height="6" transform="rotate(0,104,56)"/><rect x="101" y="59" width="6" height="6" transform="rotate(0,104,62)"/><rect x="101" y="71" width="6" height="6" transform="rotate(0,104,74)"/><rect x="101" y="89" width="6" height="6" transform="rotate(0,104,92)"/><rect x="101" y="161" width="6" height="6" transform="rotate(0,104,164)"/><rect x="101" y="167" width="6" height="6" transform="rotate(0,104,170)"/><rect x="101" y="173" width="6" height="6" transform="rotate(0,104,176)"/><rect x="101" y="203" width="6" height="6" transform="rotate(0,104,206)"/><rect x="101" y="221" width="6" height="6" transform="rotate(0,104,224)"/><rect x="101" y="227" width="6" height="6" transform="rotate(0,104,230)"/><rect x="107" y="35" width="6" height="6" transform="rotate(0,110,38)"/><rect x="107" y="47" width="6" height="6" transform="rotate(0,110,50)"/><rect x="107" y="59" width="6" height="6" transform="rotate(0,110,62)"/><rect x="107" y="83" width="6" height="6" transform="rotate(0,110,86)"/><rect x="107" y="161" width="6" height="6" transform="rotate(0,110,164)"/><rect x="107" y="179" width="6" height="6" transform="rotate(0,110,182)"/><rect x="107" y="191" width="6" height="6" transform="rotate(0,110,194)"/><rect x="107" y="203" width="6" height="6" transform="rotate(0,110,206)"/><rect x="107" y="227" width="6" height="6" transform="rotate(0,110,230)"/><rect x="107" y="233" width="6" height="6" transform="rotate(0,110,236)"/><rect x="113" y="17" width="6" height="6" transform="rotate(0,116,20)"/><rect x="113" y="23" width="6" height="6" transform="rotate(0,116,26)"/><rect x="113" y="41" width="6" height="6" transform="rotate(0,116,44)"/><rect x="113" y="47" width="6" height="6" transform="rotate(0,116,50)"/><rect x="113" y="53" width="6" height="6" transform="rotate(0,116,56)"/><rect x="113" y="65" width="6" height="6" transform="rotate(0,116,68)"/><rect x="113" y="77" width="6" height="6" transform="rotate(0,116,80)"/><rect x="113" y="83" width="6" height="6" transform="rotate(0,116,86)"/><rect x="113" y="89" width="6" height="6" transform="rotate(0,116,92)"/><rect x="113" y="161" width="6" height="6" transform="rotate(0,116,164)"/><rect x="113" y="167" width="6" height="6" transform="rotate(0,116,170)"/><rect x="113" y="179" width="6" height="6" transform="rotate(0,116,182)"/><rect x="113" y="215" width="6" height="6" transform="rotate(0,116,218)"/><rect x="113" y="221" width="6" height="6" transform="rotate(0,116,224)"/><rect x="113" y="227" width="6" height="6" transform="rotate(0,116,230)"/><rect x="119" y="17" width="6" height="6" transform="rotate(0,122,20)"/><rect x="119" y="23" width="6" height="6" transform="rotate(0,122,26)"/><rect x="119" y="29" width="6" height="6" transform="rotate(0,122,32)"/><rect x="119" y="41" width="6" height="6" transform="rotate(0,122,44)"/><rect x="119" y="47" width="6" height="6" transform="rotate(0,122,50)"/><rect x="119" y="59" width="6" height="6" transform="rotate(0,122,62)"/><rect x="119" y="65" width="6" height="6" transform="rotate(0,122,68)"/><rect x="119" y="89" width="6" height="6" transform="rotate(0,122,92)"/><rect x="119" y="179" width="6" height="6" transform="rotate(0,122,182)"/><rect x="119" y="185" width="6" height="6" transform="rotate(0,122,188)"/><rect x="119" y="197" width="6" height="6" transform="rotate(0,122,200)"/><rect x="119" y="215" width="6" height="6" transform="rotate(0,122,218)"/><rect x="119" y="221" width="6" height="6" transform="rotate(0,122,224)"/><rect x="119" y="233" width="6" height="6" transform="rotate(0,122,236)"/><rect x="125" y="47" width="6" height="6" transform="rotate(0,128,50)"/><rect x="125" y="53" width="6" height="6" transform="rotate(0,128,56)"/><rect x="125" y="71" width="6" height="6" transform="rotate(0,128,74)"/><rect x="125" y="77" width="6" height="6" transform="rotate(0,128,80)"/><rect x="125" y="173" width="6" height="6" transform="rotate(0,128,176)"/><rect x="125" y="179" width="6" height="6" transform="rotate(0,128,182)"/><rect x="125" y="185" width="6" height="6" transform="rotate(0,128,188)"/><rect x="125" y="197" width="6" height="6" transform="rotate(0,128,200)"/><rect x="125" y="209" width="6" height="6" transform="rotate(0,128,212)"/><rect x="125" y="215" width="6" height="6" transform="rotate(0,128,218)"/><rect x="125" y="227" width="6" height="6" transform="rotate(0,128,230)"/><rect x="125" y="233" width="6" height="6" transform="rotate(0,128,236)"/><rect x="131" y="17" width="6" height="6" transform="rotate(0,134,20)"/><rect x="131" y="23" width="6" height="6" transform="rotate(0,134,26)"/><rect x="131" y="29" width="6" height="6" transform="rotate(0,134,32)"/><rect x="131" y="35" width="6" height="6" transform="rotate(0,134,38)"/><rect x="131" y="41" width="6" height="6" transform="rotate(0,134,44)"/><rect x="131" y="59" width="6" height="6" transform="rotate(0,134,62)"/><rect x="131" y="71" width="6" height="6" transform="rotate(0,134,74)"/><rect x="131" y="77" width="6" height="6" transform="rotate(0,134,80)"/><rect x="131" y="185" width="6" height="6" transform="rotate(0,134,188)"/><rect x="131" y="197" width="6" height="6" transform="rotate(0,134,200)"/><rect x="131" y="203" width="6" height="6" transform="rotate(0,134,206)"/><rect x="131" y="215" width="6" height="6" transform="rotate(0,134,218)"/><rect x="131" y="227" width="6" height="6" transform="rotate(0,134,230)"/><rect x="131" y="233" width="6" height="6" transform="rotate(0,134,236)"/><rect x="137" y="17" width="6" height="6" transform="rotate(0,140,20)"/><rect x="137" y="23" width="6" height="6" transform="rotate(0,140,26)"/><rect x="137" y="41" width="6" height="6" transform="rotate(0,140,44)"/><rect x="137" y="53" width="6" height="6" transform="rotate(0,140,56)"/><rect x="137" y="59" width="6" height="6" transform="rotate(0,140,62)"/><rect x="137" y="83" width="6" height="6" transform="rotate(0,140,86)"/><rect x="137" y="161" width="6" height="6" transform="rotate(0,140,164)"/><rect x="137" y="173" width="6" height="6" transform="rotate(0,140,176)"/><rect x="137" y="179" width="6" height="6" transform="rotate(0,140,182)"/><rect x="137" y="185" width="6" height="6" transform="rotate(0,140,188)"/><rect x="137" y="191" width="6" height="6" transform="rotate(0,140,194)"/><rect x="137" y="209" width="6" height="6" transform="rotate(0,140,212)"/><rect x="137" y="227" width="6" height="6" transform="rotate(0,140,230)"/><rect x="143" y="47" width="6" height="6" transform="rotate(0,146,50)"/><rect x="143" y="191" width="6" height="6" transform="rotate(0,146,194)"/><rect x="143" y="203" width="6" height="6" transform="rotate(0,146,206)"/><rect x="143" y="227" width="6" height="6" transform="rotate(0,146,230)"/><rect x="149" y="23" width="6" height="6" transform="rotate(0,152,26)"/><rect x="149" y="29" width="6" height="6" transform="rotate(0,152,32)"/><rect x="149" y="35" width="6" height="6" transform="rotate(0,152,38)"/><rect x="149" y="47" width="6" height="6" transform="rotate(0,152,50)"/><rect x="149" y="53" width="6" height="6" transform="rotate(0,152,56)"/><rect x="149" y="59" width="6" height="6" transform="rotate(0,152,62)"/><rect x="149" y="71" width="6" height="6" transform="rotate(0,152,74)"/><rect x="149" y="77" width="6" height="6" transform="rotate(0,152,80)"/><rect x="149" y="89" width="6" height="6" transform="rotate(0,152,92)"/><rect x="149" y="191" width="6" height="6" transform="rotate(0,152,194)"/><rect x="149" y="209" width="6" height="6" transform="rotate(0,152,212)"/><rect x="149" y="215" width="6" height="6" transform="rotate(0,152,218)"/><rect x="155" y="23" width="6" height="6" transform="rotate(0,158,26)"/><rect x="155" y="41" width="6" height="6" transform="rotate(0,158,44)"/><rect x="155" y="59" width="6" height="6" transform="rotate(0,158,62)"/><rect x="155" y="71" width="6" height="6" transform="rotate(0,158,74)"/><rect x="155" y="77" width="6" height="6" transform="rotate(0,158,80)"/><rect x="155" y="89" width="6" height="6" transform="rotate(0,158,92)"/><rect x="155" y="161" width="6" height="6" transform="rotate(0,158,164)"/><rect x="155" y="167" width="6" height="6" transform="rotate(0,158,170)"/><rect x="155" y="173" width="6" height="6" transform="rotate(0,158,176)"/><rect x="155" y="179" width="6" height="6" transform="rotate(0,158,182)"/><rect x="155" y="185" width="6" height="6" transform="rotate(0,158,188)"/><rect x="155" y="197" width="6" height="6" transform="rotate(0,158,200)"/><rect x="155" y="215" width="6" height="6" transform="rotate(0,158,218)"/><rect x="155" y="221" width="6" height="6" transform="rotate(0,158,224)"/><rect x="155" y="227" width="6" height="6" transform="rotate(0,158,230)"/><rect x="155" y="233" width="6" height="6" transform="rotate(0,158,236)"/><rect x="161" y="29" width="6" height="6" transform="rotate(0,164,32)"/><rect x="161" y="35" width="6" height="6" transform="rotate(0,164,38)"/><rect x="161" y="41" width="6" height="6" transform="rotate(0,164,44)"/><rect x="161" y="47" width="6" height="6" transform="rotate(0,164,50)"/><rect x="161" y="53" width="6" height="6" transform="rotate(0,164,56)"/><rect x="161" y="71" width="6" height="6" transform="rotate(0,164,74)"/><rect x="161" y="77" width="6" height="6" transform="rotate(0,164,80)"/><rect x="161" y="119" width="6" height="6" transform="rotate(0,164,122)"/><rect x="161" y="125" width="6" height="6" transform="rotate(0,164,128)"/><rect x="161" y="155" width="6" height="6" transform="rotate(0,164,158)"/><rect x="161" y="161" width="6" height="6" transform="rotate(0,164,164)"/><rect x="161" y="191" width="6" height="6" transform="rotate(0,164,194)"/><rect x="161" y="197" width="6" height="6" transform="rotate(0,164,200)"/><rect x="161" y="209" width="6" height="6" transform="rotate(0,164,212)"/><rect x="161" y="215" width="6" height="6" transform="rotate(0,164,218)"/><rect x="161" y="221" width="6" height="6" transform="rotate(0,164,224)"/><rect x="161" y="227" width="6" height="6" transform="rotate(0,164,230)"/><rect x="167" y="41" width="6" height="6" transform="rotate(0,170,44)"/><rect x="167" y="47" width="6" height="6" transform="rotate(0,170,50)"/><rect x="167" y="65" width="6" height="6" transform="rotate(0,170,68)"/><rect x="167" y="77" width="6" height="6" transform="rotate(0,170,80)"/><rect x="167" y="83" width="6" height="6" transform="rotate(0,170,86)"/><rect x="167" y="89" width="6" height="6" transform="rotate(0,170,92)"/><rect x="167" y="95" width="6" height="6" transform="rotate(0,170,98)"/><rect x="167" y="113" width="6" height="6" transform="rotate(0,170,116)"/><rect x="167" y="119" width="6" height="6" transform="rotate(0,170,122)"/><rect x="167" y="125" width="6" height="6" transform="rotate(0,170,128)"/><rect x="167" y="137" width="6" height="6" transform="rotate(0,170,140)"/><rect x="167" y="161" width="6" height="6" transform="rotate(0,170,164)"/><rect x="167" y="173" width="6" height="6" transform="rotate(0,170,176)"/><rect x="167" y="179" width="6" height="6" transform="rotate(0,170,182)"/><rect x="167" y="185" width="6" height="6" transform="rotate(0,170,188)"/><rect x="167" y="191" width="6" height="6" transform="rotate(0,170,194)"/><rect x="167" y="197" width="6" height="6" transform="rotate(0,170,200)"/><rect x="167" y="203" width="6" height="6" transform="rotate(0,170,206)"/><rect x="167" y="209" width="6" height="6" transform="rotate(0,170,212)"/><rect x="167" y="221" width="6" height="6" transform="rotate(0,170,224)"/><rect x="167" y="233" width="6" height="6" transform="rotate(0,170,236)"/><rect x="173" y="23" width="6" height="6" transform="rotate(0,176,26)"/><rect x="173" y="53" width="6" height="6" transform="rotate(0,176,56)"/><rect x="173" y="77" width="6" height="6" transform="rotate(0,176,80)"/><rect x="173" y="89" width="6" height="6" transform="rotate(0,176,92)"/><rect x="173" y="101" width="6" height="6" transform="rotate(0,176,104)"/><rect x="173" y="131" width="6" height="6" transform="rotate(0,176,134)"/><rect x="173" y="137" width="6" height="6" transform="rotate(0,176,140)"/><rect x="173" y="173" width="6" height="6" transform="rotate(0,176,176)"/><rect x="173" y="221" width="6" height="6" transform="rotate(0,176,224)"/><rect x="173" y="227" width="6" height="6" transform="rotate(0,176,230)"/><rect x="179" y="17" width="6" height="6" transform="rotate(0,182,20)"/><rect x="179" y="35" width="6" height="6" transform="rotate(0,182,38)"/><rect x="179" y="59" width="6" height="6" transform="rotate(0,182,62)"/><rect x="179" y="65" width="6" height="6" transform="rotate(0,182,68)"/><rect x="179" y="71" width="6" height="6" transform="rotate(0,182,74)"/><rect x="179" y="95" width="6" height="6" transform="rotate(0,182,98)"/><rect x="179" y="107" width="6" height="6" transform="rotate(0,182,110)"/><rect x="179" y="131" width="6" height="6" transform="rotate(0,182,134)"/><rect x="179" y="143" width="6" height="6" transform="rotate(0,182,146)"/><rect x="179" y="155" width="6" height="6" transform="rotate(0,182,158)"/><rect x="179" y="173" width="6" height="6" transform="rotate(0,182,176)"/><rect x="179" y="179" width="6" height="6" transform="rotate(0,182,182)"/><rect x="179" y="191" width="6" height="6" transform="rotate(0,182,194)"/><rect x="179" y="203" width="6" height="6" transform="rotate(0,182,206)"/><rect x="179" y="209" width="6" height="6" transform="rotate(0,182,212)"/><rect x="179" y="215" width="6" height="6" transform="rotate(0,182,218)"/><rect x="179" y="227" width="6" height="6" transform="rotate(0,182,230)"/><rect x="185" y="35" width="6" height="6" transform="rotate(0,188,38)"/><rect x="185" y="47" width="6" height="6" transform="rotate(0,188,50)"/><rect x="185" y="53" width="6" height="6" transform="rotate(0,188,56)"/><rect x="185" y="59" width="6" height="6" transform="rotate(0,188,62)"/><rect x="185" y="71" width="6" height="6" transform="rotate(0,188,74)"/><rect x="185" y="83" width="6" height="6" transform="rotate(0,188,86)"/><rect x="185" y="113" width="6" height="6" transform="rotate(0,188,116)"/><rect x="185" y="125" width="6" height="6" transform="rotate(0,188,128)"/><rect x="185" y="143" width="6" height="6" transform="rotate(0,188,146)"/><rect x="185" y="149" width="6" height="6" transform="rotate(0,188,152)"/><rect x="185" y="161" width="6" height="6" transform="rotate(0,188,164)"/><rect x="185" y="167" width="6" height="6" transform="rotate(0,188,170)"/><rect x="185" y="179" width="6" height="6" transform="rotate(0,188,182)"/><rect x="185" y="185" width="6" height="6" transform="rotate(0,188,188)"/><rect x="185" y="191" width="6" height="6" transform="rotate(0,188,194)"/><rect x="185" y="197" width="6" height="6" transform="rotate(0,188,200)"/><rect x="185" y="203" width="6" height="6" transform="rotate(0,188,206)"/><rect x="185" y="209" width="6" height="6" transform="rotate(0,188,212)"/><rect x="185" y="221" width="6" height="6" transform="rotate(0,188,224)"/><rect x="185" y="233" width="6" height="6" transform="rotate(0,188,236)"/><rect x="191" y="65" width="6" height="6" transform="rotate(0,194,68)"/><rect x="191" y="77" width="6" height="6" transform="rotate(0,194,80)"/><rect x="191" y="89" width="6" height="6" transform="rotate(0,194,92)"/><rect x="191" y="101" width="6" height="6" transform="rotate(0,194,104)"/><rect x="191" y="107" width="6" height="6" transform="rotate(0,194,110)"/><rect x="191" y="113" width="6" height="6" transform="rotate(0,194,116)"/><rect x="191" y="125" width="6" height="6" transform="rotate(0,194,128)"/><rect x="191" y="131" width="6" height="6" transform="rotate(0,194,134)"/><rect x="191" y="137" width="6" height="6" transform="rotate(0,194,140)"/><rect x="191" y="143" width="6" height="6" transform="rotate(0,194,146)"/><rect x="191" y="149" width="6" height="6" transform="rotate(0,194,152)"/><rect x="191" y="155" width="6" height="6" transform="rotate(0,194,158)"/><rect x="191" y="161" width="6" height="6" transform="rotate(0,194,164)"/><rect x="191" y="185" width="6" height="6" transform="rotate(0,194,188)"/><rect x="191" y="209" width="6" height="6" transform="rotate(0,194,212)"/><rect x="191" y="215" width="6" height="6" transform="rotate(0,194,218)"/><rect x="191" y="221" width="6" height="6" transform="rotate(0,194,224)"/><rect x="191" y="233" width="6" height="6" transform="rotate(0,194,236)"/><rect x="197" y="71" width="6" height="6" transform="rotate(0,200,74)"/><rect x="197" y="89" width="6" height="6" transform="rotate(0,200,92)"/><rect x="197" y="95" width="6" height="6" transform="rotate(0,200,98)"/><rect x="197" y="101" width="6" height="6" transform="rotate(0,200,104)"/><rect x="197" y="107" width="6" height="6" transform="rotate(0,200,110)"/><rect x="197" y="125" width="6" height="6" transform="rotate(0,200,128)"/><rect x="197" y="131" width="6" height="6" transform="rotate(0,200,134)"/><rect x="197" y="149" width="6" height="6" transform="rotate(0,200,152)"/><rect x="197" y="161" width="6" height="6" transform="rotate(0,200,164)"/><rect x="197" y="167" width="6" height="6" transform="rotate(0,200,170)"/><rect x="197" y="173" width="6" height="6" transform="rotate(0,200,176)"/><rect x="197" y="185" width="6" height="6" transform="rotate(0,200,188)"/><rect x="197" y="197" width="6" height="6" transform="rotate(0,200,200)"/><rect x="197" y="209" width="6" height="6" transform="rotate(0,200,212)"/><rect x="197" y="215" width="6" height="6" transform="rotate(0,200,218)"/><rect x="197" y="227" width="6" height="6" transform="rotate(0,200,230)"/><rect x="197" y="233" width="6" height="6" transform="rotate(0,200,236)"/><rect x="203" y="65" width="6" height="6" transform="rotate(0,206,68)"/><rect x="203" y="71" width="6" height="6" transform="rotate(0,206,74)"/><rect x="203" y="77" width="6" height="6" transform="rotate(0,206,80)"/><rect x="203" y="89" width="6" height="6" transform="rotate(0,206,92)"/><rect x="203" y="95" width="6" height="6" transform="rotate(0,206,98)"/><rect x="203" y="113" width="6" height="6" transform="rotate(0,206,116)"/><rect x="203" y="125" width="6" height="6" transform="rotate(0,206,128)"/><rect x="203" y="137" width="6" height="6" transform="rotate(0,206,140)"/><rect x="203" y="143" width="6" height="6" transform="rotate(0,206,146)"/><rect x="203" y="155" width="6" height="6" transform="rotate(0,206,158)"/><rect x="203" y="179" width="6" height="6" transform="rotate(0,206,182)"/><rect x="203" y="185" width="6" height="6" transform="rotate(0,206,188)"/><rect x="203" y="209" width="6" height="6" transform="rotate(0,206,212)"/><rect x="203" y="215" width="6" height="6" transform="rotate(0,206,218)"/><rect x="203" y="227" width="6" height="6" transform="rotate(0,206,230)"/><rect x="203" y="233" width="6" height="6" transform="rotate(0,206,236)"/><rect x="209" y="71" width="6" height="6" transform="rotate(0,212,74)"/><rect x="209" y="77" width="6" height="6" transform="rotate(0,212,80)"/><rect x="209" y="83" width="6" height="6" transform="rotate(0,212,86)"/><rect x="209" y="89" width="6" height="6" transform="rotate(0,212,92)"/><rect x="209" y="119" width="6" height="6" transform="rotate(0,212,122)"/><rect x="209" y="125" width="6" height="6" transform="rotate(0,212,128)"/><rect x="209" y="131" width="6" height="6" transform="rotate(0,212,134)"/><rect x="209" y="137" width="6" height="6" transform="rotate(0,212,140)"/><rect x="209" y="155" width="6" height="6" transform="rotate(0,212,158)"/><rect x="209" y="173" width="6" height="6" transform="rotate(0,212,176)"/><rect x="209" y="185" width="6" height="6" transform="rotate(0,212,188)"/><rect x="209" y="191" width="6" height="6" transform="rotate(0,212,194)"/><rect x="209" y="197" width="6" height="6" transform="rotate(0,212,200)"/><rect x="209" y="203" width="6" height="6" transform="rotate(0,212,206)"/><rect x="209" y="209" width="6" height="6" transform="rotate(0,212,212)"/><rect x="209" y="215" width="6" height="6" transform="rotate(0,212,218)"/><rect x="209" y="227" width="6" height="6" transform="rotate(0,212,230)"/><rect x="209" y="233" width="6" height="6" transform="rotate(0,212,236)"/><rect x="215" y="65" width="6" height="6" transform="rotate(0,218,68)"/><rect x="215" y="71" width="6" height="6" transform="rotate(0,218,74)"/><rect x="215" y="83" width="6" height="6" transform="rotate(0,218,86)"/><rect x="215" y="89" width="6" height="6" transform="rotate(0,218,92)"/><rect x="215" y="101" width="6" height="6" transform="rotate(0,218,104)"/><rect x="215" y="107" width="6" height="6" transform="rotate(0,218,110)"/><rect x="215" y="113" width="6" height="6" transform="rotate(0,218,116)"/><rect x="215" y="125" width="6" height="6" transform="rotate(0,218,128)"/><rect x="215" y="179" width="6" height="6" transform="rotate(0,218,182)"/><rect x="215" y="197" width="6" height="6" transform="rotate(0,218,200)"/><rect x="215" y="209" width="6" height="6" transform="rotate(0,218,212)"/><rect x="215" y="227" width="6" height="6" transform="rotate(0,218,230)"/><rect x="221" y="65" width="6" height="6" transform="rotate(0,224,68)"/><rect x="221" y="83" width="6" height="6" transform="rotate(0,224,86)"/><rect x="221" y="107" width="6" height="6" transform="rotate(0,224,110)"/><rect x="221" y="113" width="6" height="6" transform="rotate(0,224,116)"/><rect x="221" y="119" width="6" height="6" transform="rotate(0,224,122)"/><rect x="221" y="125" width="6" height="6" transform="rotate(0,224,128)"/><rect x="221" y="143" width="6" height="6" transform="rotate(0,224,146)"/><rect x="221" y="149" width="6" height="6" transform="rotate(0,224,152)"/><rect x="221" y="167" width="6" height="6" transform="rotate(0,224,170)"/><rect x="221" y="173" width="6" height="6" transform="rotate(0,224,176)"/><rect x="221" y="197" width="6" height="6" transform="rotate(0,224,200)"/><rect x="221" y="203" width="6" height="6" transform="rotate(0,224,206)"/><rect x="221" y="209" width="6" height="6" transform="rotate(0,224,212)"/><rect x="221" y="215" width="6" height="6" transform="rotate(0,224,218)"/><rect x="221" y="227" width="6" height="6" transform="rotate(0,224,230)"/><rect x="227" y="65" width="6" height="6" transform="rotate(0,230,68)"/><rect x="227" y="83" width="6" height="6" transform="rotate(0,230,86)"/><rect x="227" y="89" width="6" height="6" transform="rotate(0,230,92)"/><rect x="227" y="101" width="6" height="6" transform="rotate(0,230,104)"/><rect x="227" y="113" width="6" height="6" transform="rotate(0,230,116)"/><rect x="227" y="125" width="6" height="6" transform="rotate(0,230,128)"/><rect x="227" y="131" width="6" height="6" transform="rotate(0,230,134)"/><rect x="227" y="155" width="6" height="6" transform="rotate(0,230,158)"/><rect x="227" y="161" width="6" height="6" transform="rotate(0,230,164)"/><rect x="227" y="167" width="6" height="6" transform="rotate(0,230,170)"/><rect x="227" y="191" width="6" height="6" transform="rotate(0,230,194)"/><rect x="227" y="197" width="6" height="6" transform="rotate(0,230,200)"/><rect x="227" y="203" width="6" height="6" transform="rotate(0,230,206)"/><rect x="227" y="209" width="6" height="6" transform="rotate(0,230,212)"/><rect x="227" y="221" width="6" height="6" transform="rotate(0,230,224)"/><rect x="233" y="71" width="6" height="6" transform="rotate(0,236,74)"/><rect x="233" y="77" width="6" height="6" transform="rotate(0,236,80)"/><rect x="233" y="83" width="6" height="6" transform="rotate(0,236,86)"/><rect x="233" y="95" width="6" height="6" transform="rotate(0,236,98)"/><rect x="233" y="101" width="6" height="6" transform="rotate(0,236,104)"/><rect x="233" y="107" width="6" height="6" transform="rotate(0,236,110)"/><rect x="233" y="113" width="6" height="6" transform="rotate(0,236,116)"/><rect x="233" y="149" width="6" height="6" transform="rotate(0,236,152)"/><rect x="233" y="155" width="6" height="6" transform="rotate(0,236,158)"/><rect x="233" y="161" width="6" height="6" transform="rotate(0,236,164)"/><rect x="233" y="167" width="6" height="6" transform="rotate(0,236,170)"/><rect x="233" y="173" width="6" height="6" transform="rotate(0,236,176)"/><rect x="233" y="191" width="6" height="6" transform="rotate(0,236,194)"/><rect x="233" y="203" width="6" height="6" transform="rotate(0,236,206)"/><rect x="233" y="209" width="6" height="6" transform="rotate(0,236,212)"/><rect x="233" y="215" width="6" height="6" transform="rotate(0,236,218)"/><rect x="233" y="221" width="6" height="6" transform="rotate(0,236,224)"/><rect x="233" y="227" width="6" height="6" transform="rotate(0,236,230)"/><rect x="233" y="233" width="6" height="6" transform="rotate(0,236,236)"/><rect x="17" y="17" width="6" height="6" transform="rotate(0,20,20)"/><rect x="17" y="23" width="6" height="6" transform="rotate(0,20,26)"/><rect x="17" y="29" width="6" height="6" transform="rotate(0,20,32)"/><rect x="17" y="35" width="6" height="6" transform="rotate(0,20,38)"/><rect x="17" y="41" width="6" height="6" transform="rotate(0,20,44)"/><rect x="17" y="47" width="6" height="6" transform="rotate(0,20,50)"/><rect x="17" y="53" width="6" height="6" transform="rotate(0,20,56)"/><rect x="23" y="17" width="6" height="6" transform="rotate(0,26,20)"/><rect x="23" y="53" width="6" height="6" transform="rotate(0,26,56)"/><rect x="29" y="17" width="6" height="6" transform="rotate(0,32,20)"/><rect x="29" y="53" width="6" height="6" transform="rotate(0,32,56)"/><rect x="35" y="17" width="6" height="6" transform="rotate(0,38,20)"/><rect x="35" y="53" width="6" height="6" transform="rotate(0,38,56)"/><rect x="41" y="17" width="6" height="6" transform="rotate(0,44,20)"/><rect x="41" y="53" width="6" height="6" transform="rotate(0,44,56)"/><rect x="47" y="17" width="6" height="6" transform="rotate(0,50,20)"/><rect x="47" y="53" width="6" height="6" transform="rotate(0,50,56)"/><rect x="53" y="17" width="6" height="6" transform="rotate(0,56,20)"/><rect x="53" y="23" width="6" height="6" transform="rotate(0,56,26)"/><rect x="53" y="29" width="6" height="6" transform="rotate(0,56,32)"/><rect x="53" y="35" width="6" height="6" transform="rotate(0,56,38)"/><rect x="53" y="41" width="6" height="6" transform="rotate(0,56,44)"/><rect x="53" y="47" width="6" height="6" transform="rotate(0,56,50)"/><rect x="53" y="53" width="6" height="6" transform="rotate(0,56,56)"/><rect x="29" y="29" width="6" height="6" transform="rotate(0,32,32)"/><rect x="29" y="35" width="6" height="6" transform="rotate(0,32,38)"/><rect x="29" y="41" width="6" height="6" transform="rotate(0,32,44)"/><rect x="35" y="29" width="6" height="6" transform="rotate(0,38,32)"/><rect x="35" y="35" width="6" height="6" transform="rotate(0,38,38)"/><rect x="35" y="41" width="6" height="6" transform="rotate(0,38,44)"/><rect x="41" y="29" width="6" height="6" transform="rotate(0,44,32)"/><rect x="41" y="35" width="6" height="6" transform="rotate(0,44,38)"/><rect x="41" y="41" width="6" height="6" transform="rotate(0,44,44)"/><rect x="197" y="17" width="6" height="6" transform="rotate(0,200,20)"/><rect x="197" y="23" width="6" height="6" transform="rotate(0,200,26)"/><rect x="197" y="29" width="6" height="6" transform="rotate(0,200,32)"/><rect x="197" y="35" width="6" height="6" transform="rotate(0,200,38)"/><rect x="197" y="41" width="6" height="6" transform="rotate(0,200,44)"/><rect x="197" y="47" width="6" height="6" transform="rotate(0,200,50)"/><rect x="197" y="53" width="6" height="6" transform="rotate(0,200,56)"/><rect x="203" y="17" width="6" height="6" transform="rotate(0,206,20)"/><rect x="203" y="53" width="6" height="6" transform="rotate(0,206,56)"/><rect x="209" y="17" width="6" height="6" transform="rotate(0,212,20)"/><rect x="209" y="53" width="6" height="6" transform="rotate(0,212,56)"/><rect x="215" y="17" width="6" height="6" transform="rotate(0,218,20)"/><rect x="215" y="53" width="6" height="6" transform="rotate(0,218,56)"/><rect x="221" y="17" width="6" height="6" transform="rotate(0,224,20)"/><rect x="221" y="53" width="6" height="6" transform="rotate(0,224,56)"/><rect x="227" y="17" width="6" height="6" transform="rotate(0,230,20)"/><rect x="227" y="53" width="6" height="6" transform="rotate(0,230,56)"/><rect x="233" y="17" width="6" height="6" transform="rotate(0,236,20)"/><rect x="233" y="23" width="6" height="6" transform="rotate(0,236,26)"/><rect x="233" y="29" width="6" height="6" transform="rotate(0,236,32)"/><rect x="233" y="35" width="6" height="6" transform="rotate(0,236,38)"/><rect x="233" y="41" width="6" height="6" transform="rotate(0,236,44)"/><rect x="233" y="47" width="6" height="6" transform="rotate(0,236,50)"/><rect x="233" y="53" width="6" height="6" transform="rotate(0,236,56)"/><rect x="209" y="29" width="6" height="6" transform="rotate(0,212,32)"/><rect x="209" y="35" width="6" height="6" transform="rotate(0,212,38)"/><rect x="209" y="41" width="6" height="6" transform="rotate(0,212,44)"/><rect x="215" y="29" width="6" height="6" transform="rotate(0,218,32)"/><rect x="215" y="35" width="6" height="6" transform="rotate(0,218,38)"/><rect x="215" y="41" width="6" height="6" transform="rotate(0,218,44)"/><rect x="221" y="29" width="6" height="6" transform="rotate(0,224,32)"/><rect x="221" y="35" width="6" height="6" transform="rotate(0,224,38)"/><rect x="221" y="41" width="6" height="6" transform="rotate(0,224,44)"/><rect x="17" y="197" width="6" height="6" transform="rotate(0,20,200)"/><rect x="17" y="203" width="6" height="6" transform="rotate(0,20,206)"/><rect x="17" y="209" width="6" height="6" transform="rotate(0,20,212)"/><rect x="17" y="215" width="6" height="6" transform="rotate(0,20,218)"/><rect x="17" y="221" width="6" height="6" transform="rotate(0,20,224)"/><rect x="17" y="227" width="6" height="6" transform="rotate(0,20,230)"/><rect x="17" y="233" width="6" height="6" transform="rotate(0,20,236)"/><rect x="23" y="197" width="6" height="6" transform="rotate(0,26,200)"/><rect x="23" y="233" width="6" height="6" transform="rotate(0,26,236)"/><rect x="29" y="197" width="6" height="6" transform="rotate(0,32,200)"/><rect x="29" y="233" width="6" height="6" transform="rotate(0,32,236)"/><rect x="35" y="197" width="6" height="6" transform="rotate(0,38,200)"/><rect x="35" y="233" width="6" height="6" transform="rotate(0,38,236)"/><rect x="41" y="197" width="6" height="6" transform="rotate(0,44,200)"/><rect x="41" y="233" width="6" height="6" transform="rotate(0,44,236)"/><rect x="47" y="197" width="6" height="6" transform="rotate(0,50,200)"/><rect x="47" y="233" width="6" height="6" transform="rotate(0,50,236)"/><rect x="53" y="197" width="6" height="6" transform="rotate(0,56,200)"/><rect x="53" y="203" width="6" height="6" transform="rotate(0,56,206)"/><rect x="53" y="209" width="6" height="6" transform="rotate(0,56,212)"/><rect x="53" y="215" width="6" height="6" transform="rotate(0,56,218)"/><rect x="53" y="221" width="6" height="6" transform="rotate(0,56,224)"/><rect x="53" y="227" width="6" height="6" transform="rotate(0,56,230)"/><rect x="53" y="233" width="6" height="6" transform="rotate(0,56,236)"/><rect x="29" y="209" width="6" height="6" transform="rotate(0,32,212)"/><rect x="29" y="215" width="6" height="6" transform="rotate(0,32,218)"/><rect x="29" y="221" width="6" height="6" transform="rotate(0,32,224)"/><rect x="35" y="209" width="6" height="6" transform="rotate(0,38,212)"/><rect x="35" y="215" width="6" height="6" transform="rotate(0,38,218)"/><rect x="35" y="221" width="6" height="6" transform="rotate(0,38,224)"/><rect x="41" y="209" width="6" height="6" transform="rotate(0,44,212)"/><rect x="41" y="215" width="6" height="6" transform="rotate(0,44,218)"/><rect x="41" y="221" width="6" height="6" transform="rotate(0,44,224)"/></clipPath></defs><rect x="0" y="0" height="256" width="256" clip-path="url('#clip-path-background-color')" fill="#ffffff"/><rect x="17" y="17" height="222" width="222" clip-path="url('#clip-path-dot-color')" fill="#000000"/><image href="https://whydonate.com/cdn-cgi/imagedelivery/_0vgnXOEIHPwLg2E52a7gg/production/qr_logo/ece07d6891484aa0/public" x="97" y="98" width="62px" height="60px"/></svg>
